{
	"asset":{
		"generator":"Khronos glTF Blender I/O v4.1.63",
		"version":"2.0"
	},
	"scene":0,
	"scenes":[
		{
			"name":"Scene",
			"nodes":[
				2
			]
		}
	],
	"nodes":[
		{
			"extras":{
				"shape":"sphere"
			},
			"name":"col_sphere"
		},
		{
			"mesh":0,
			"name":"Cube"
		},
		{
			"children":[
				0,
				1
			],
			"extras":{
				"massdry":2.0
			},
			"name":"part_charball"
		}
	],
	"materials":[
		{
			"doubleSided":true,
			"name":"Material",
			"pbrMetallicRoughness":{
				"baseColorFactor":[
					0.800000011920929,
					0.800000011920929,
					0.800000011920929,
					1
				],
				"metallicFactor":0,
				"roughnessFactor":0.5
			}
		}
	],
	"meshes":[
		{
			"name":"Cube",
			"primitives":[
				{
					"attributes":{
						"POSITION":0,
						"NORMAL":1,
						"TEXCOORD_0":2
					},
					"indices":3,
					"material":0
				}
			]
		}
	],
	"accessors":[
		{
			"bufferView":0,
			"componentType":5126,
			"count":24,
			"max":[
				0.053983479738235474,
				0.053983479738235474,
				0.053983479738235474
			],
			"min":[
				-0.053983479738235474,
				-0.053983479738235474,
				-0.053983479738235474
			],
			"type":"VEC3"
		},
		{
			"bufferView":1,
			"componentType":5126,
			"count":24,
			"type":"VEC3"
		},
		{
			"bufferView":2,
			"componentType":5126,
			"count":24,
			"type":"VEC2"
		},
		{
			"bufferView":3,
			"componentType":5123,
			"count":36,
			"type":"SCALAR"
		}
	],
	"bufferViews":[
		{
			"buffer":0,
			"byteLength":288,
			"byteOffset":0,
			"target":34962
		},
		{
			"buffer":0,
			"byteLength":288,
			"byteOffset":288,
			"target":34962
		},
		{
			"buffer":0,
			"byteLength":192,
			"byteOffset":576,
			"target":34962
		},
		{
			"buffer":0,
			"byteLength":72,
			"byteOffset":768,
			"target":34963
		}
	],
	"buffers":[
		{
			"byteLength":840,
			"uri":"charball.bin"
		}
	]
}
